<svg xmlns="http://www.w3.org/2000/svg" viewBox="0 0 1276.71 1107.56">
  <defs>
    <style>
      .cls-1 {
        fill: #cde1e8;
      }
    </style>
  </defs>
  <g id="Layer_2" data-name="Layer 2">
    <g id="Layer_1-2" data-name="Layer 1">
      <g>
        <path class="cls-1" d="M301.18,230.59V837A150.59,150.59,0,0,1,150.59,987.56h0A150.59,150.59,0,0,1,0,837V230.59A150.59,150.59,0,0,1,150.59,80h0A150.59,150.59,0,0,1,301.18,230.59Z"/>
        <path class="cls-1" d="M951.53,270.59V877a150.59,150.59,0,0,1-150.59,150.59h0A150.59,150.59,0,0,1,650.35,877V270.59A150.59,150.59,0,0,1,800.94,120h0A150.59,150.59,0,0,1,951.53,270.59Z"/>
        <path class="cls-1" d="M626.35,350.59V957a150.59,150.59,0,0,1-150.59,150.59h0A150.59,150.59,0,0,1,325.18,957V350.59A150.59,150.59,0,0,1,475.76,200h0A150.59,150.59,0,0,1,626.35,350.59Z"/>
        <path class="cls-1" d="M1276.71,150.59V757a150.59,150.59,0,0,1-150.59,150.59h0A150.59,150.59,0,0,1,975.53,757V150.59A150.59,150.59,0,0,1,1126.12,0h0A150.59,150.59,0,0,1,1276.71,150.59Z"/>
      </g>
    </g>
  </g>
</svg>
