<svg width="251" height="36" viewBox="0 0 251 36" fill="none" xmlns="http://www.w3.org/2000/svg">
<g clip-path="url(#clip0_86_81)">
<path d="M9.90556 27.1942V7.49212C9.90556 4.78992 7.68812 2.59937 4.95278 2.59937C2.21744 2.59937 0 4.78992 0 7.49212V27.1942C0 29.8964 2.21744 32.087 4.95278 32.087C7.68812 32.087 9.90556 29.8964 9.90556 27.1942Z" fill="#01124A"/>
<path d="M33.7166 28.4938V8.79168C33.7166 6.08949 31.4991 3.89893 28.7638 3.89893C26.0284 3.89893 23.811 6.08949 23.811 8.79168V28.4938C23.811 31.196 26.0284 33.3865 28.7638 33.3865C31.4991 33.3865 33.7166 31.196 33.7166 28.4938Z" fill="#029BDF"/>
<path d="M21.811 31.0931V11.391C21.811 8.68885 19.5936 6.49829 16.8583 6.49829C14.1229 6.49829 11.9055 8.68885 11.9055 11.391V31.0931C11.9055 33.7953 14.1229 35.9859 16.8583 35.9859C19.5936 35.9859 21.811 33.7953 21.811 31.0931Z" fill="#CDE1E8"/>
<path d="M45.6222 24.5949V4.89275C45.6222 2.19056 43.4047 0 40.6694 0C37.934 0 35.7166 2.19056 35.7166 4.89275V24.5949C35.7166 27.2971 37.934 29.4876 40.6694 29.4876C43.4047 29.4876 45.6222 27.2971 45.6222 24.5949Z" fill="#88C5DA"/>
<path d="M59.3287 27.4929V7.85654H72.3302V11.2795H63.4804V15.9585H71.4672V19.3814H63.4804V27.4929H59.3287ZM80.0791 27.7806C78.5897 27.7806 77.3017 27.4642 76.2151 26.8313C75.1348 26.1921 74.3006 25.3036 73.7126 24.1659C73.1245 23.0217 72.8305 21.6953 72.8305 20.1868C72.8305 18.6655 73.1245 17.336 73.7126 16.1982C74.3006 15.054 75.1348 14.1655 76.2151 13.5327C77.3017 12.8935 78.5897 12.5739 80.0791 12.5739C81.5684 12.5739 82.8532 12.8935 83.9335 13.5327C85.0201 14.1655 85.8575 15.054 86.4455 16.1982C87.0336 17.336 87.3276 18.6655 87.3276 20.1868C87.3276 21.6953 87.0336 23.0217 86.4455 24.1659C85.8575 25.3036 85.0201 26.1921 83.9335 26.8313C82.8532 27.4642 81.5684 27.7806 80.0791 27.7806ZM80.0982 24.6165C80.7758 24.6165 81.3415 24.4247 81.7953 24.0412C82.2492 23.6513 82.5911 23.1208 82.8212 22.4496C83.0577 21.7784 83.176 21.0146 83.176 20.158C83.176 19.3015 83.0577 18.5377 82.8212 17.8665C82.5911 17.1953 82.2492 16.6648 81.7953 16.2749C81.3415 15.885 80.7758 15.69 80.0982 15.69C79.4143 15.69 78.839 15.885 78.3724 16.2749C77.9121 16.6648 77.5638 17.1953 77.3273 17.8665C77.0972 18.5377 76.9821 19.3015 76.9821 20.158C76.9821 21.0146 77.0972 21.7784 77.3273 22.4496C77.5638 23.1208 77.9121 23.6513 78.3724 24.0412C78.839 24.4247 79.4143 24.6165 80.0982 24.6165ZM98.8878 21.2223V12.7656H102.972V27.4929H99.0508V24.8178H98.8974C98.565 25.6808 98.0121 26.3743 97.2386 26.8985C96.4716 27.4226 95.5351 27.6847 94.4293 27.6847C93.4449 27.6847 92.5788 27.461 91.831 27.0135C91.0831 26.5661 90.4982 25.9301 90.0763 25.1055C89.6609 24.2809 89.4499 23.2933 89.4435 22.1428V12.7656H93.528V21.4141C93.5344 22.2834 93.7677 22.9705 94.228 23.4755C94.6882 23.9805 95.305 24.233 96.0785 24.233C96.5707 24.233 97.0309 24.1211 97.4592 23.8974C97.8874 23.6673 98.2326 23.3285 98.4947 22.8811C98.7631 22.4336 98.8942 21.8807 98.8878 21.2223ZM109.784 18.9787V27.4929H105.699V12.7656H109.592V15.364H109.765C110.091 14.5075 110.637 13.8299 111.404 13.3313C112.171 12.8264 113.101 12.5739 114.194 12.5739C115.217 12.5739 116.109 12.7976 116.87 13.2451C117.63 13.6925 118.221 14.3317 118.643 15.1627C119.065 15.9872 119.276 16.9716 119.276 18.1158V27.4929H115.192V18.8445C115.198 17.9432 114.968 17.2401 114.501 16.7351C114.035 16.2237 113.392 15.9681 112.574 15.9681C112.024 15.9681 111.539 16.0863 111.117 16.3228C110.701 16.5593 110.375 16.9045 110.139 17.3583C109.909 17.8058 109.79 18.3459 109.784 18.9787ZM127.382 27.7326C126.264 27.7326 125.25 27.445 124.343 26.8697C123.441 26.288 122.726 25.4347 122.195 24.3097C121.671 23.1783 121.409 21.7912 121.409 20.1485C121.409 18.461 121.68 17.0579 122.224 15.9393C122.767 14.8143 123.489 13.9737 124.391 13.4176C125.298 12.8551 126.292 12.5739 127.373 12.5739C128.197 12.5739 128.884 12.7145 129.434 12.9958C129.99 13.2706 130.438 13.6158 130.776 14.0313C131.122 14.4404 131.384 14.8431 131.563 15.2394H131.687V7.85654H135.762V27.4929H131.735V25.1343H131.563C131.371 25.5433 131.099 25.9492 130.748 26.3519C130.402 26.7482 129.952 27.0774 129.396 27.3395C128.846 27.6016 128.175 27.7326 127.382 27.7326ZM128.677 24.4823C129.335 24.4823 129.891 24.3033 130.345 23.9453C130.805 23.581 131.157 23.0728 131.4 22.4208C131.649 21.7688 131.774 21.005 131.774 20.1293C131.774 19.2536 131.652 18.4929 131.409 17.8473C131.166 17.2017 130.815 16.7031 130.354 16.3516C129.894 16 129.335 15.8242 128.677 15.8242C128.005 15.8242 127.44 16.0064 126.979 16.3708C126.519 16.7351 126.171 17.2401 125.934 17.8857C125.698 18.5313 125.58 19.2791 125.58 20.1293C125.58 20.9858 125.698 21.7433 125.934 22.4017C126.177 23.0536 126.526 23.565 126.979 23.9357C127.44 24.3001 128.005 24.4823 128.677 24.4823ZM145.292 27.7806C143.777 27.7806 142.473 27.4737 141.38 26.8601C140.293 26.2401 139.456 25.3644 138.868 24.233C138.28 23.0952 137.986 21.7497 137.986 20.1964C137.986 18.6815 138.28 17.3519 138.868 16.2078C139.456 15.0636 140.284 14.1719 141.351 13.5327C142.425 12.8935 143.684 12.5739 145.129 12.5739C146.101 12.5739 147.005 12.7305 147.842 13.0437C148.686 13.3505 149.421 13.8139 150.048 14.434C150.681 15.054 151.173 15.8338 151.524 16.7735C151.876 17.7067 152.052 18.7997 152.052 20.0526V21.1744H139.616V18.6431H148.207C148.207 18.0551 148.079 17.5341 147.823 17.0803C147.568 16.6264 147.213 16.2717 146.759 16.016C146.312 15.7539 145.791 15.6229 145.196 15.6229C144.576 15.6229 144.026 15.7667 143.547 16.0544C143.074 16.3356 142.703 16.7159 142.435 17.1953C142.166 17.6683 142.029 18.1957 142.022 18.7774V21.184C142.022 21.9127 142.157 22.5423 142.425 23.0728C142.7 23.6034 143.087 24.0125 143.585 24.3001C144.084 24.5877 144.675 24.7316 145.359 24.7316C145.813 24.7316 146.228 24.6676 146.606 24.5398C146.983 24.412 147.306 24.2202 147.574 23.9645C147.842 23.7088 148.047 23.3956 148.188 23.0249L151.965 23.2742C151.774 24.1818 151.38 24.9745 150.786 25.652C150.198 26.3232 149.437 26.8473 148.504 27.2245C147.577 27.5952 146.507 27.7806 145.292 27.7806ZM154.177 27.4929V12.7656H158.137V15.3352H158.29C158.559 14.4212 159.009 13.7308 159.642 13.2642C160.275 12.7912 161.004 12.5547 161.828 12.5547C162.033 12.5547 162.253 12.5675 162.49 12.5931C162.726 12.6186 162.934 12.6538 163.113 12.6985V16.3228C162.921 16.2653 162.656 16.2142 162.317 16.1694C161.979 16.1247 161.669 16.1023 161.387 16.1023C160.786 16.1023 160.25 16.2333 159.777 16.4954C159.31 16.7511 158.939 17.109 158.664 17.5693C158.396 18.0295 158.262 18.56 158.262 19.1609V27.4929H154.177ZM171.569 27.4929H165.212V7.85654H171.771C173.695 7.85654 175.347 8.24965 176.728 9.03587C178.108 9.8157 179.166 10.9375 179.901 12.4013C180.643 13.8587 181.013 15.6069 181.013 17.646C181.013 19.6914 180.639 21.4492 179.892 22.9194C179.15 24.3896 178.076 25.521 176.67 26.3136C175.264 27.0998 173.563 27.4929 171.569 27.4929ZM168.175 24.9041H171.406C172.902 24.9041 174.145 24.6229 175.136 24.0604C176.127 23.4915 176.868 22.6701 177.36 21.5963C177.853 20.516 178.099 19.1992 178.099 17.646C178.099 16.1055 177.853 14.7983 177.36 13.7245C176.875 12.6506 176.149 11.8356 175.184 11.2795C174.219 10.7234 173.02 10.4453 171.588 10.4453H168.175V24.9041ZM190.275 27.7902C188.824 27.7902 187.574 27.4801 186.526 26.8601C185.484 26.2337 184.679 25.3548 184.11 24.2234C183.547 23.0856 183.266 21.7529 183.266 20.2252C183.266 18.7166 183.547 17.3871 184.11 16.2365C184.679 15.086 185.471 14.1879 186.488 13.5423C187.51 12.8967 188.706 12.5739 190.073 12.5739C190.904 12.5739 191.71 12.7113 192.49 12.9862C193.269 13.261 193.969 13.6925 194.589 14.2806C195.209 14.8686 195.698 15.6325 196.056 16.5721C196.414 17.5053 196.593 18.6399 196.593 19.9759V20.9922H184.886V18.8445H193.784C193.784 18.0902 193.631 17.4223 193.324 16.8406C193.017 16.2525 192.586 15.7891 192.029 15.4503C191.48 15.1115 190.834 14.9421 190.093 14.9421C189.287 14.9421 188.584 15.1403 187.983 15.5366C187.389 15.9265 186.929 16.4379 186.603 17.0707C186.283 17.6971 186.123 18.3779 186.123 19.1129V20.7909C186.123 21.7752 186.296 22.6126 186.641 23.3029C186.993 23.9933 187.481 24.5206 188.108 24.885C188.734 25.2429 189.466 25.4219 190.304 25.4219C190.847 25.4219 191.342 25.3452 191.79 25.1918C192.237 25.032 192.624 24.7955 192.95 24.4823C193.276 24.1691 193.525 23.7823 193.698 23.3221L196.411 23.8111C196.194 24.6101 195.804 25.31 195.241 25.9109C194.685 26.5053 193.985 26.9688 193.142 27.3012C192.304 27.6272 191.349 27.7902 190.275 27.7902ZM210.27 16.3612L207.672 16.8214C207.563 16.489 207.39 16.1726 207.154 15.8722C206.924 15.5718 206.611 15.3257 206.214 15.1339C205.818 14.9421 205.323 14.8463 204.728 14.8463C203.916 14.8463 203.239 15.0284 202.695 15.3928C202.152 15.7507 201.881 16.2142 201.881 16.783C201.881 17.2752 202.063 17.6715 202.427 17.972C202.791 18.2724 203.379 18.5185 204.191 18.7102L206.531 19.2472C207.886 19.5604 208.896 20.043 209.561 20.695C210.225 21.347 210.558 22.1939 210.558 23.2358C210.558 24.1179 210.302 24.9041 209.791 25.5945C209.286 26.2784 208.579 26.8154 207.672 27.2053C206.77 27.5952 205.725 27.7902 204.536 27.7902C202.887 27.7902 201.542 27.4386 200.5 26.7355C199.458 26.0259 198.819 25.0192 198.582 23.7152L201.353 23.2933C201.526 24.0156 201.881 24.5622 202.417 24.9329C202.954 25.2973 203.654 25.4794 204.517 25.4794C205.457 25.4794 206.208 25.2845 206.77 24.8946C207.333 24.4982 207.614 24.0156 207.614 23.4468C207.614 22.9865 207.442 22.5998 207.096 22.2866C206.758 21.9734 206.237 21.7369 205.534 21.5771L203.041 21.0306C201.666 20.7174 200.65 20.2188 199.992 19.5348C199.34 18.8509 199.014 17.9848 199.014 16.9365C199.014 16.0671 199.257 15.3065 199.742 14.6545C200.228 14.0025 200.899 13.4943 201.756 13.13C202.612 12.7593 203.594 12.5739 204.699 12.5739C206.291 12.5739 207.544 12.9191 208.458 13.6094C209.372 14.2933 209.976 15.2106 210.27 16.3612ZM213.17 27.4929V12.7656H216.037V27.4929H213.17ZM214.618 10.4933C214.119 10.4933 213.691 10.3271 213.333 9.99467C212.981 9.6559 212.805 9.2532 212.805 8.78658C212.805 8.31357 212.981 7.91087 213.333 7.57848C213.691 7.2397 214.119 7.07031 214.618 7.07031C215.116 7.07031 215.541 7.2397 215.893 7.57848C216.251 7.91087 216.43 8.31357 216.43 8.78658C216.43 9.2532 216.251 9.6559 215.893 9.99467C215.541 10.3271 215.116 10.4933 214.618 10.4933ZM225.528 33.3225C224.358 33.3225 223.352 33.1691 222.508 32.8622C221.671 32.5554 220.987 32.1495 220.456 31.6446C219.925 31.1396 219.529 30.5867 219.267 29.9858L221.731 28.9695C221.904 29.2507 222.134 29.548 222.422 29.8612C222.716 30.1808 223.112 30.4524 223.611 30.6762C224.115 30.8999 224.764 31.0117 225.557 31.0117C226.644 31.0117 227.542 30.7465 228.251 30.2159C228.961 29.6918 229.315 28.8544 229.315 27.7039V24.8083H229.133C228.961 25.1215 228.711 25.4698 228.385 25.8534C228.066 26.2369 227.625 26.5693 227.062 26.8505C226.5 27.1318 225.768 27.2724 224.867 27.2724C223.703 27.2724 222.655 27.0007 221.722 26.4574C220.795 25.9077 220.06 25.0991 219.516 24.0316C218.979 22.9578 218.711 21.6378 218.711 20.0718C218.711 18.5057 218.976 17.1634 219.507 16.0448C220.044 14.9262 220.779 14.0696 221.712 13.4752C222.645 12.8743 223.703 12.5739 224.886 12.5739C225.8 12.5739 226.538 12.7273 227.101 13.0341C227.663 13.3345 228.101 13.6861 228.414 14.0888C228.734 14.4915 228.98 14.8463 229.152 15.1531H229.363V12.7656H232.173V27.8189C232.173 29.0845 231.879 30.1232 231.291 30.935C230.702 31.7468 229.907 32.3477 228.903 32.7376C227.906 33.1275 226.781 33.3225 225.528 33.3225ZM225.499 24.8946C226.324 24.8946 227.021 24.7028 227.59 24.3193C228.165 23.9294 228.6 23.3732 228.894 22.6509C229.194 21.9223 229.344 21.0497 229.344 20.0334C229.344 19.0426 229.197 18.1701 228.903 17.4159C228.609 16.6616 228.178 16.0735 227.609 15.6517C227.04 15.2234 226.337 15.0093 225.499 15.0093C224.636 15.0093 223.917 15.233 223.342 15.6804C222.767 16.1215 222.332 16.7223 222.038 17.483C221.75 18.2436 221.607 19.0938 221.607 20.0334C221.607 20.9986 221.754 21.8455 222.048 22.5742C222.342 23.3029 222.776 23.8718 223.352 24.2809C223.933 24.69 224.649 24.8946 225.499 24.8946ZM238.344 18.7486V27.4929H235.477V12.7656H238.229V15.1627H238.411C238.75 14.3828 239.281 13.7564 240.003 13.2834C240.732 12.8104 241.649 12.5739 242.755 12.5739C243.758 12.5739 244.637 12.7848 245.392 13.2067C246.146 13.6222 246.731 14.2422 247.146 15.0668C247.562 15.8914 247.769 16.9109 247.769 18.1254V27.4929H244.903V18.4705C244.903 17.4031 244.624 16.5689 244.068 15.9681C243.512 15.3608 242.748 15.0572 241.777 15.0572C241.112 15.0572 240.521 15.201 240.003 15.4887C239.492 15.7763 239.086 16.1982 238.785 16.7543C238.491 17.304 238.344 17.9688 238.344 18.7486Z" fill="#01124A"/>
</g>
<defs>
<clipPath id="clip0_86_81">
<rect width="251" height="36" fill="white"/>
</clipPath>
</defs>
</svg>
